<svg width="40" height="40" viewBox="0 0 40 40" fill="none" xmlns="http://www.w3.org/2000/svg">
<path fill-rule="evenodd" clip-rule="evenodd" d="M31.9564 16.066C31.9564 20.5229 28.2771 24.136 23.7385 24.136C23.111 24.136 22.4999 24.0669 21.9127 23.9361C23.13 22.5287 23.8645 20.7059 23.8645 18.7146C23.8645 14.8739 21.1323 11.6599 17.4724 10.8445C18.9798 9.10178 21.2277 7.99597 23.7385 7.99597C28.2771 7.99597 31.9564 11.609 31.9564 16.066Z" fill="#8CEAB7"/>
<path d="M18.1467 10.5356C19.6503 8.63762 21.9983 7.41663 24.6367 7.41663C29.1754 7.41663 32.8546 11.0297 32.8546 15.4866C32.8546 19.9436 29.1754 23.5567 24.6367 23.5567C24.0291 23.5567 23.4368 23.4919 22.8667 23.369" stroke="#00AA6C" stroke-width="3.2924" stroke-miterlimit="10"/>
<path d="M23.2876 23.5568C25.5192 23.5567 27.7181 24.0839 29.6987 25.0938C31.6792 26.1038 33.3832 27.5669 34.6668 29.3596" stroke="#00AA6C" stroke-width="3.2924" stroke-linecap="round" stroke-linejoin="round"/>
<path d="M16.5453 26.2053C21.0839 26.2053 24.7631 22.5923 24.7631 18.1353C24.7631 13.6784 21.0839 10.0653 16.5453 10.0653C12.0067 10.0653 8.32739 13.6784 8.32739 18.1353C8.32739 22.5923 12.0067 26.2053 16.5453 26.2053Z" stroke="#00AA6C" stroke-width="3.2924" stroke-miterlimit="10"/>
<path d="M5.16602 33.3334C6.44948 31.5406 8.15336 30.0773 10.1338 29.0672C12.1142 28.0571 14.3131 27.5297 16.5447 27.5297C18.7764 27.5296 20.9753 28.0568 22.9558 29.0667C24.9363 30.0767 26.6403 31.5398 27.9239 33.3325" stroke="#00AA6C" stroke-width="3.2924" stroke-linecap="round" stroke-linejoin="round"/>
</svg>
