<svg width="40" height="40" viewBox="0 0 40 40" fill="none" xmlns="http://www.w3.org/2000/svg">
<path opacity="0.3" fill-rule="evenodd" clip-rule="evenodd" d="M22.3883 25.2219V11.969C23.244 12.0707 23.7333 12.0707 23.7333 12.0707H29.8666C31.4932 12.0707 33.0533 12.7581 34.2035 13.9818C35.3537 15.2054 35.9999 16.865 35.9999 18.5955C35.9999 20.326 35.3537 21.9856 34.2035 23.2092C33.0533 24.4328 31.4932 25.1203 29.8666 25.1203H23.7333C23.7333 25.1203 23.244 25.1203 22.3883 25.2219Z" fill="#F1B203"/>
<path d="M22.6666 25.9041V32.2439C22.6666 32.452 22.718 32.657 22.8161 32.8405C22.9142 33.0241 23.0561 33.1805 23.2291 33.296L24.9647 34.4544C25.1331 34.5668 25.3261 34.637 25.5273 34.6591C25.7285 34.6813 25.9321 34.6547 26.1209 34.5817C26.3097 34.5086 26.4782 34.3912 26.6122 34.2393C26.7462 34.0874 26.8417 33.9055 26.8908 33.7089L30 25.9041" stroke="#F1B203" stroke-width="2.63392" stroke-linecap="round" stroke-linejoin="round"/>
<path d="M29.8666 25.858C31.4932 25.858 33.0533 25.1706 34.2035 23.947C35.3537 22.7233 35.9999 21.0637 35.9999 19.3333C35.9999 17.6028 35.3537 15.9432 34.2035 14.7195C33.0533 13.4959 31.4932 12.8085 29.8666 12.8085H23.7333C23.7333 12.8085 15.384 12.8085 7.34942 5.63976C7.17073 5.47976 6.95281 5.37737 6.72129 5.34463C6.48977 5.31189 6.25427 5.35016 6.0425 5.45494C5.83072 5.55971 5.65147 5.72664 5.52583 5.93609C5.40019 6.14554 5.33337 6.38881 5.33325 6.63727V32.0292C5.33337 32.2777 5.40019 32.521 5.52583 32.7304C5.65147 32.9399 5.83072 33.1068 6.0425 33.2116C6.25427 33.3163 6.48977 33.3546 6.72129 33.3219C6.95281 33.2891 7.17073 33.1867 7.34942 33.0267C15.384 25.858 23.7333 25.858 23.7333 25.858H29.8666Z" stroke="#F1B203" stroke-width="2.63392" stroke-linecap="round" stroke-linejoin="round"/>
<path d="M29.8666 25.858C31.4932 25.858 33.0533 25.1706 34.2035 23.947C35.3537 22.7233 35.9999 21.0637 35.9999 19.3333C35.9999 17.6028 35.3537 15.9432 34.2035 14.7195C33.0533 13.4959 31.4932 12.8085 29.8666 12.8085H23.7333C23.7333 12.8085 15.384 12.8085 7.34942 5.63976C7.17073 5.47976 6.95281 5.37737 6.72129 5.34463C6.48977 5.31189 6.25427 5.35016 6.0425 5.45494C5.83072 5.55971 5.65147 5.72664 5.52583 5.93609C5.40019 6.14554 5.33337 6.38881 5.33325 6.63727V32.0292C5.33337 32.2777 5.40019 32.521 5.52583 32.7304C5.65147 32.9399 5.83072 33.1068 6.0425 33.2116C6.25427 33.3163 6.48977 33.3546 6.72129 33.3219C6.95281 33.2891 7.17073 33.1867 7.34942 33.0267C15.384 25.858 23.7333 25.858 23.7333 25.858H29.8666Z" stroke="#F1B203" stroke-width="2.63392" stroke-linecap="round" stroke-linejoin="round"/>
<path d="M22.3883 12.5111V25.6807" stroke="#F1B203" stroke-width="2.63392"/>
</svg>
