<svg width="40" height="40" viewBox="0 0 40 40" fill="none" xmlns="http://www.w3.org/2000/svg">
<path d="M18.328 17.9795L23.8991 32.8357C23.9541 32.9822 24.0526 33.1084 24.1815 33.1972C24.3103 33.286 24.4633 33.3332 24.6198 33.3324C24.7763 33.3317 24.9288 33.2829 25.0567 33.1928C25.1847 33.1027 25.282 32.9756 25.3355 32.8285L27.5673 26.6909C27.6055 26.5858 27.6663 26.4903 27.7454 26.4112C27.8245 26.3321 27.92 26.2713 28.0252 26.2331L34.1627 24.0012C34.3098 23.9478 34.4369 23.8505 34.527 23.7225C34.6171 23.5946 34.6659 23.4421 34.6667 23.2856C34.6674 23.1291 34.6202 22.9761 34.5314 22.8472C34.4426 22.7184 34.3164 22.6198 34.1699 22.5649L19.3137 16.9938C19.1761 16.9422 19.0265 16.9313 18.8828 16.9624C18.7391 16.9935 18.6075 17.0654 18.5035 17.1693C18.3996 17.2733 18.3278 17.4049 18.2966 17.5486C18.2655 17.6923 18.2764 17.8418 18.328 17.9795Z" fill="#ED5D2D" fill-opacity="0.3" stroke="#ED5D2D" stroke-width="2.63392" stroke-linecap="round" stroke-linejoin="round"/>
<path d="M27.7456 26.4113L34.5799 33.2456" stroke="#ED5D2D" stroke-width="2.63392" stroke-linecap="round" stroke-linejoin="round"/>
<path d="M8 12.0001C10.2091 12.0001 12 10.2093 12 8.00012C12 5.79098 10.2091 4.00012 8 4.00012C5.79086 4.00012 4 5.79098 4 8.00012C4 10.2093 5.79086 12.0001 8 12.0001Z" stroke="#ED5D2D" stroke-width="2.63392" stroke-linecap="round" stroke-linejoin="round"/>
<path d="M8.00024 28C8.00024 16 18.0002 6.66663 30.6669 6.66663" stroke="#ED5D2D" stroke-width="2.63392" stroke-linecap="round"/>
<rect x="4" y="28" width="8" height="8" rx="2.63392" stroke="#ED5D2D" stroke-width="2.63392"/>
<path d="M8.00024 26.6668V12.0001" stroke="#ED5D2D" stroke-width="2.63392"/>
</svg>
