<svg width="40" height="40" viewBox="0 0 40 40" fill="none" xmlns="http://www.w3.org/2000/svg">
<path d="M10.6671 35.9994C13.6126 35.9994 16.0004 33.6116 16.0004 30.6661C16.0004 27.7206 13.6126 25.3328 10.6671 25.3328C7.72156 25.3328 5.33374 27.7206 5.33374 30.6661C5.33374 33.6116 7.72156 35.9994 10.6671 35.9994Z" fill="#96DFFF" stroke="#0699EC" stroke-width="3.2924" stroke-linecap="round" stroke-linejoin="round"/>
<path d="M29.375 14.9988C31.7912 14.9988 33.75 13.04 33.75 10.6238C33.75 8.20753 31.7912 6.24878 29.375 6.24878C26.9588 6.24878 25 8.20753 25 10.6238C25 13.04 26.9588 14.9988 29.375 14.9988Z" stroke="#0699EC" stroke-width="3.2924" stroke-linecap="round" stroke-linejoin="round"/>
<path d="M10.625 14.9988C13.0412 14.9988 15 13.04 15 10.6238C15 8.20753 13.0412 6.24878 10.625 6.24878C8.20875 6.24878 6.25 8.20753 6.25 10.6238C6.25 13.04 8.20875 14.9988 10.625 14.9988Z" stroke="#0699EC" stroke-width="3.2924" stroke-linecap="round" stroke-linejoin="round"/>
<path d="M10.625 25V23.75C10.625 22.7554 11.0201 21.8017 11.7234 21.0984C12.4266 20.3952 13.3804 20.0001 14.3749 20.0001L25.6251 19.9999C26.6196 19.9999 27.5734 19.6048 28.2767 18.9016C28.9799 18.1983 29.375 17.2446 29.375 16.25V15" stroke="#0699EC" stroke-width="3.2924" stroke-linecap="round" stroke-linejoin="round"/>
<path d="M10.625 15V25" stroke="#0699EC" stroke-width="3.2924" stroke-linecap="round" stroke-linejoin="round"/>
</svg>
